<svg xmlns="http://www.w3.org/2000/svg" width="360" height="202.5" viewBox="0 0 360 202.5">
  <g id="Gruppe_1341" data-name="Gruppe 1341" transform="translate(-10 -2216)">
    <g id="Gruppe_1336" data-name="Gruppe 1336" transform="translate(44 2240)">
      <path id="Pfad_9785" data-name="Pfad 9785" d="M491.742,24.593h0a4.2,4.2,0,0,1,4.2-4.2h6.712a4.2,4.2,0,0,1,4.2,4.2h0a4.2,4.2,0,0,1-4.2,4.2h-6.712A4.2,4.2,0,0,1,491.742,24.593Z" transform="translate(-298.949 -20.388)" fill="#393e46"/>
      <path id="Pfad_9786" data-name="Pfad 9786" d="M693.078,216.977h0a4.205,4.205,0,0,1,4.2,4.2v6.712a4.2,4.2,0,0,1-4.2,4.2h0a4.2,4.2,0,0,1-4.2-4.2v-6.712A4.205,4.205,0,0,1,693.078,216.977Z" transform="translate(-412.168 -144.417)" fill="#393e46"/>
      <rect id="Rechteck_451" data-name="Rechteck 451" width="9.071" height="28.347" rx="4.536" transform="translate(5.251 44.582)" fill="#7971ea"/>
      <path id="Pfad_9787" data-name="Pfad 9787" d="M588.772,418.352h0a4.454,4.454,0,0,1,4.453-4.454h18.928a4.454,4.454,0,0,1,4.453,4.454h0a4.454,4.454,0,0,1-4.453,4.454H593.225A4.454,4.454,0,0,1,588.772,418.352Z" transform="translate(-334.37 -271.473)" fill="#7971ea"/>
      <path id="Pfad_9788" data-name="Pfad 9788" d="M504.257,418.352h0a4.454,4.454,0,0,1,4.454-4.454h4.078a4.454,4.454,0,0,1,4.453,4.454h0a4.453,4.453,0,0,1-4.453,4.454h-4.078A4.453,4.453,0,0,1,504.257,418.352Z" transform="translate(-307.503 -271.473)" fill="#7971ea"/>
      <g id="Gruppe_1333" data-name="Gruppe 1333" transform="translate(114.534 147.06)">
        <path id="Pfad_9789" data-name="Pfad 9789" d="M319.241,434.7h0a3.1,3.1,0,0,1,3.1,3.1h0a3.1,3.1,0,0,1-3.1,3.1h0a3.1,3.1,0,0,1-3.1-3.1h0A3.1,3.1,0,0,1,319.241,434.7Z" transform="translate(-316.143 -434.7)" fill="#393e46"/>
        <path id="Pfad_9790" data-name="Pfad 9790" d="M324,440.825h0a1.733,1.733,0,0,1,1.733,1.733h0A1.733,1.733,0,0,1,324,444.292h0a1.734,1.734,0,0,1-1.734-1.734h0A1.733,1.733,0,0,1,324,440.825Z" transform="translate(-320.903 -439.46)" fill="#7971ea"/>
      </g>
      <g id="Gruppe_1334" data-name="Gruppe 1334" transform="translate(285.348 57.309)">
        <path id="Pfad_9791" data-name="Pfad 9791" d="M730.766,181.845h0a3.1,3.1,0,0,1,3.1,3.1h0a3.1,3.1,0,0,1-3.1,3.1h0a3.1,3.1,0,0,1-3.1-3.1h0A3.1,3.1,0,0,1,730.766,181.845Z" transform="translate(-727.668 -181.845)" fill="#393e46"/>
        <path id="Pfad_9792" data-name="Pfad 9792" d="M735.526,187.969h0a1.734,1.734,0,0,1,1.734,1.734h0a1.734,1.734,0,0,1-1.734,1.734h0a1.734,1.734,0,0,1-1.734-1.734h0A1.734,1.734,0,0,1,735.526,187.969Z" transform="translate(-732.428 -186.605)" fill="#7971ea"/>
      </g>
      <g id="Gruppe_1335" data-name="Gruppe 1335" transform="translate(0 121.692)">
        <path id="Pfad_9793" data-name="Pfad 9793" d="M43.548,362.555h0A3.342,3.342,0,0,1,46.89,365.9h0a3.342,3.342,0,0,1-3.342,3.342h0a3.342,3.342,0,0,1-3.342-3.342h0A3.342,3.342,0,0,1,43.548,362.555Z" transform="translate(-40.206 -362.555)" fill="#393e46"/>
        <path id="Pfad_9794" data-name="Pfad 9794" d="M48.682,369.161h0a1.87,1.87,0,0,1,1.87,1.87h0a1.87,1.87,0,0,1-1.87,1.87h0a1.87,1.87,0,0,1-1.87-1.87h0A1.87,1.87,0,0,1,48.682,369.161Z" transform="translate(-45.34 -367.689)" fill="#7971ea"/>
      </g>
      <path id="Pfad_9795" data-name="Pfad 9795" d="M585.9,52.164H583.8a4.2,4.2,0,0,1-4.2-4.2h0a4.2,4.2,0,0,1,4.2-4.2H585.9a4.2,4.2,0,0,1,4.2,4.2h0A4.2,4.2,0,0,1,585.9,52.164Z" transform="translate(-352.71 -38.548)" fill="#7971ea"/>
    </g>
    <rect id="Rechteck_455" data-name="Rechteck 455" width="360" height="202.5" transform="translate(10 2216)" fill="none"/>
  </g>
</svg>
