<svg xmlns="http://www.w3.org/2000/svg" width="360" height="202.5" viewBox="0 0 360 202.5">
  <g id="Gruppe_1340" data-name="Gruppe 1340" transform="translate(-477 -2046)">
    <g id="Gruppe_1338" data-name="Gruppe 1338" transform="translate(517 2062)">
      <path id="Pfad_9796" data-name="Pfad 9796" d="M589.242,632.024h0a4.2,4.2,0,0,1,4.2-4.2h17.871a4.205,4.205,0,0,1,4.2,4.2h0a4.2,4.2,0,0,1-4.2,4.2H593.447A4.2,4.2,0,0,1,589.242,632.024Z" transform="translate(-457.482 -626.744)" fill="#7971ea"/>
      <path id="Pfad_9797" data-name="Pfad 9797" d="M299.987,1107.548h0a4.66,4.66,0,0,1,4.66-4.66h37.76a4.66,4.66,0,0,1,4.66,4.66h0a4.66,4.66,0,0,1-4.66,4.66h-37.76A4.66,4.66,0,0,1,299.987,1107.548Z" transform="translate(-297.321 -941.216)" fill="none" stroke="#222831" stroke-miterlimit="10" stroke-width="2"/>
      <path id="Pfad_9798" data-name="Pfad 9798" d="M531.463,659.817h0a4.2,4.2,0,0,1,4.2-4.2h17.87a4.2,4.2,0,0,1,4.2,4.2h0a4.2,4.2,0,0,1-4.2,4.2h-17.87A4.2,4.2,0,0,1,531.463,659.817Z" transform="translate(-424.977 -648.345)" fill="none" stroke="#222831" stroke-miterlimit="10" stroke-width="2"/>
      <path id="Pfad_9799" data-name="Pfad 9799" d="M968.005,622.994h0a5.823,5.823,0,0,1,5.823,5.823v24.749a5.823,5.823,0,0,1-5.823,5.823h0a5.823,5.823,0,0,1-5.823-5.823V628.817A5.823,5.823,0,0,1,968.005,622.994Z" transform="translate(-933.062 -622.994)" fill="none" stroke="#222831" stroke-miterlimit="10" stroke-width="2"/>
      <path id="Pfad_9800" data-name="Pfad 9800" d="M665.1,683.184h0a4.2,4.2,0,0,1,4.2-4.2h17.871a4.2,4.2,0,0,1,4.2,4.2h0a4.2,4.2,0,0,1-4.2,4.2H669.3A4.2,4.2,0,0,1,665.1,683.184Z" transform="translate(-500.158 -666.506)" fill="#7971ea"/>
      <path id="Pfad_9801" data-name="Pfad 9801" d="M917.247,775.666h0a4.2,4.2,0,0,1,4.2,4.2v17.87a4.2,4.2,0,0,1-4.2,4.2h0a4.2,4.2,0,0,1-4.2-4.2v-17.87A4.205,4.205,0,0,1,917.247,775.666Z" transform="translate(-641.605 -720.948)" fill="#7971ea"/>
      <path id="Pfad_9802" data-name="Pfad 9802" d="M386.576,1053.577h0a4.453,4.453,0,0,1,4.454-4.454h4.078a4.453,4.453,0,0,1,4.453,4.454h0a4.453,4.453,0,0,1-4.453,4.453H391.03A4.453,4.453,0,0,1,386.576,1053.577Z" transform="translate(-364.618 -899.43)" fill="#7971ea"/>
      <rect id="Rechteck_452" data-name="Rechteck 452" width="9.071" height="13.225" rx="4.536" transform="translate(14.026 115.099) rotate(-180)" fill="#7971ea"/>
      <g id="Gruppe_1337" data-name="Gruppe 1337" transform="translate(206.817 30.934)">
        <path id="Pfad_9803" data-name="Pfad 9803" d="M795.7,715.708h0a3.1,3.1,0,0,1,3.1,3.1h0a3.1,3.1,0,0,1-3.1,3.1h0a3.1,3.1,0,0,1-3.1-3.1h0A3.1,3.1,0,0,1,795.7,715.708Z" transform="translate(-792.604 -715.708)" fill="#393e46"/>
        <path id="Pfad_9804" data-name="Pfad 9804" d="M800.462,721.833h0a1.734,1.734,0,0,1,1.734,1.733h0a1.734,1.734,0,0,1-1.734,1.734h0a1.734,1.734,0,0,1-1.734-1.734h0A1.734,1.734,0,0,1,800.462,721.833Z" transform="translate(-797.364 -720.468)" fill="#7971ea"/>
      </g>
      <path id="Pfad_9805" data-name="Pfad 9805" d="M772.793,1033.588h0a4.453,4.453,0,0,1,4.454-4.454h18.927a4.453,4.453,0,0,1,4.454,4.454h0a4.453,4.453,0,0,1-4.454,4.453H777.247A4.453,4.453,0,0,1,772.793,1033.588Z" transform="translate(-564.467 -883.895)" fill="#393e46"/>
      <path id="Pfad_9806" data-name="Pfad 9806" d="M292.557,703.109h0a4.535,4.535,0,0,1-4.536-4.536V669.028a4.535,4.535,0,0,1,4.536-4.536h0a4.535,4.535,0,0,1,4.536,4.536v29.546A4.535,4.535,0,0,1,292.557,703.109Z" transform="translate(-288.021 -655.246)" fill="#393e46"/>
    </g>
    <rect id="Rechteck_454" data-name="Rechteck 454" width="360" height="202.5" transform="translate(477 2046)" fill="none"/>
  </g>
</svg>
